<svg width="88px" height="26px" viewBox="44 21 88 26" version="1.1" xmlns="http://www.w3.org/2000/svg" xmlns:xlink="http://www.w3.org/1999/xlink">
    <!-- Generator: Sketch 39 (31667) - http://www.bohemiancoding.com/sketch -->
    <desc>Created with Sketch.</desc>
    <defs></defs>
    <path d="M46.0842677,44.3882175 C44.694749,42.6911822 44,40.4417901 44,37.6399736 C44,34.838157 44.4840464,32.2926424 45.4521538,30.0033533 C46.4202611,27.7140641 47.8040644,25.8519091 49.6036051,24.4168324 C51.4031458,22.9817556 53.396278,22.264228 55.5830617,22.264228 C56.4031055,22.264228 57.1320225,22.3895106 57.7698344,22.6400795 C59.4099221,21.5466877 61.1069319,21 62.8609146,21 C63.6809585,21 64.449738,21.1195879 65.1672764,21.3587674 C65.6854526,21.5314928 64.9907404,23.7448554 64.9907404,23.7448554 C64.9907404,23.7448554 63.5194314,23.1526044 62.6217363,23.1526044 C61.5283445,23.1526044 60.5260837,23.3690016 59.6149239,23.8018025 C60.6855367,24.9407523 61.2208351,26.5523422 61.2208351,28.6366203 C61.2208351,30.7208985 60.6741474,32.6172215 59.5807555,34.3256462 C58.4873637,36.0340709 57.1206444,36.8882704 55.4805567,36.8882704 C54.5010599,36.8882704 53.7095016,36.4782547 53.1058582,35.6582108 C52.5022148,34.8381669 52.2003976,33.8131275 52.2003976,32.5830617 C52.2003976,29.6217922 53.3051624,26.9453003 55.514725,24.5535056 C53.7151843,24.6218426 52.2573504,25.800638 51.1411796,28.0899271 C50.0250088,30.3792163 49.4669318,33.1411281 49.4669318,36.3757456 C49.4669318,41.0909978 50.833651,43.4485886 53.5671306,43.4485886 C55.4350083,43.4485886 57.4281406,42.2868772 59.5465872,39.9634196 L60.7424785,40.9543009 C60.4463516,41.4782179 59.9623052,42.1274095 59.2903248,42.9018954 C58.6183444,43.6763813 57.9520687,44.3255729 57.2914779,44.8494898 C56.630887,45.3734067 55.7766874,45.8517585 54.7288536,46.2845594 C53.6810198,46.7173603 52.6218123,46.9337576 51.5511995,46.9337576 C49.2960789,46.9337576 47.4737865,46.0852527 46.0842677,44.3882175 Z M58.8632207,28.9953877 C58.8632207,27.12751 58.4418156,25.8519054 57.5989928,25.1685355 C56.5967169,26.0569163 55.7937694,27.1389024 55.190126,28.4145262 C54.5864826,29.69015 54.2846654,31.011312 54.2846654,32.3780517 C54.2846654,33.0842006 54.4156426,33.6650563 54.6776011,34.1206362 C54.9395596,34.5762162 55.2755447,34.8040027 55.6855666,34.8040027 C56.5739475,34.8040027 57.3256431,34.1775897 57.940676,32.9247449 C58.5557089,31.6719001 58.8632207,30.3621275 58.8632207,28.9953877 L58.8632207,28.9953877 Z M64.6251147,43.9440293 C64.6251147,42.9987009 65.1888864,39.9805292 66.3164467,34.8894235 C67.4299813,29.8616462 67.993666,26.2168577 68.0075171,23.9549518 C68.0076915,23.9264615 68.0077788,23.8981907 68.0077788,23.8701392 C67.9335282,23.325635 67.8027688,22.3667329 67.8027688,22.3667329 C68.2565143,22.2096672 68.7028302,22.0726573 69.1417173,21.9557031 C70.4214099,21.6146919 71.6379453,21.4441882 72.791344,21.4441882 C73.019134,21.7630942 73.1330273,22.3211712 73.1330273,23.1184361 C73.1330273,24.9407558 72.5578663,28.4657526 71.4075269,33.6935322 C70.2571876,38.9213118 69.6820266,41.9622622 69.6820266,42.8164746 C69.6820266,43.6706869 69.7845306,44.0977867 69.9895415,44.0977867 L72.3813242,43.2435786 L72.996354,44.4394699 C72.2218681,45.0545028 71.2822486,45.6239692 70.1774673,46.1478861 C69.072686,46.671803 68.1273718,46.9337576 67.3414964,46.9337576 C66.5556211,46.9337576 65.9064294,46.671803 65.393902,46.1478861 C64.8813746,45.6239692 64.6251147,44.8893576 64.6251147,43.9440293 Z M74.7456055,40.6126177 C74.7456055,37.7652432 75.6054997,35.515851 77.3253139,33.8643738 C79.0451281,32.2128966 80.9983978,31.3871704 83.1851814,31.3871704 C84.5291422,31.3871704 85.6339069,31.7174608 86.4995088,32.3780517 C87.3651106,33.0386426 87.7979051,33.9213155 87.7979051,35.0260968 C87.7979051,36.1308781 87.5188666,37.0591083 86.9607811,37.8108152 C86.4026957,38.5625221 85.7250308,39.1433777 84.9277659,39.5533997 C83.3104572,40.3506645 81.8298446,40.8517949 80.4858838,41.0568059 L79.6658441,41.1593109 C79.825297,43.3005365 80.7022752,44.3711333 82.296805,44.3711333 C82.8435009,44.3711333 83.4243566,44.2344614 84.0393895,43.9611134 C84.6544224,43.6877655 85.1327741,43.4144216 85.4744591,43.1410737 L85.9869839,42.7310538 L86.8070237,43.8244401 C86.6247917,44.0750091 86.2603332,44.4052996 85.7136373,44.8153215 C85.1669414,45.2253434 84.6544217,45.5670233 84.1760628,45.8403712 C82.854881,46.5692991 81.4084364,46.9337576 79.8366857,46.9337576 C78.2649349,46.9337576 77.0234983,46.3756805 76.1123384,45.2595097 C75.2011786,44.1433389 74.7456055,42.5943904 74.7456055,40.6126177 L74.7456055,40.6126177 Z M82.39931,38.0158251 C83.0826798,37.2413392 83.4243597,36.2390784 83.4243597,35.0090126 C83.4243597,33.7789469 83.0599012,33.1639232 82.3309733,33.1639232 C81.4653714,33.1639232 80.7990958,33.8985348 80.3321264,35.36778 C79.865157,36.8370253 79.6316757,38.2094392 79.6316757,39.485063 C80.7934046,39.2800521 81.7159401,38.790311 82.39931,38.0158251 L82.39931,38.0158251 Z M95.1678458,32.0022002 C95.6575942,32.4122221 95.9024647,33.2550323 95.9024647,34.5306561 C95.9024647,35.214026 95.6974568,36.6092186 95.2874349,38.7162758 C94.877413,40.8233329 94.6724051,42.1046322 94.6724051,42.5602122 C94.6724051,43.471372 94.8546343,43.9269451 95.2190983,43.9269451 C96.0847001,43.9269451 97.035709,43.2834481 98.0721533,41.9964348 C99.1085976,40.7094215 99.6495907,39.6331301 99.6951487,38.7675282 L97.3717027,36.1707356 C97.4628186,35.1912388 97.7019945,34.3028713 98.0892374,33.5056064 C98.4764804,32.7083415 98.8409389,32.1502645 99.1826238,31.8313586 L99.6609803,31.3871704 C100.640477,31.3871704 101.380783,31.6491249 101.881921,32.1730418 C102.383059,32.6969587 102.633624,33.3119824 102.633624,34.0181313 C102.633624,35.817672 102.189441,37.7196896 101.30106,39.7242413 C100.412679,41.728793 99.228189,43.4314974 97.7475542,44.8324057 C96.2669195,46.2333139 94.7635283,46.9337576 93.2373355,46.9337576 C92.2806177,46.9337576 91.5460061,46.6376351 91.0334786,46.0453812 C90.5209512,45.4531272 90.2646914,44.6729583 90.2646914,43.704851 C90.2646914,42.7367436 90.338722,41.4326657 90.4867855,39.7925779 C90.6348489,38.1524902 90.7088796,36.5238164 90.7088796,34.9065077 C90.7088796,34.5420437 90.5779023,34.1092493 90.3159438,33.6081114 C90.0539854,33.1069735 89.7863362,32.708347 89.5129882,32.4122201 L89.6154932,32.0022002 C90.845559,31.5921782 91.9560184,31.3871704 92.9469048,31.3871704 C93.9377911,31.3871704 94.6780974,31.5921782 95.1678458,32.0022002 L95.1678458,32.0022002 Z M104.041193,40.6126177 C104.041193,37.7652432 104.901087,35.515851 106.620901,33.8643738 C108.340715,32.2128966 110.293985,31.3871704 112.480769,31.3871704 C113.824729,31.3871704 114.929494,31.7174608 115.795096,32.3780517 C116.660698,33.0386426 117.093492,33.9213155 117.093492,35.0260968 C117.093492,36.1308781 116.814454,37.0591083 116.256368,37.8108152 C115.698283,38.5625221 115.020618,39.1433777 114.223353,39.5533997 C112.606044,40.3506645 111.125432,40.8517949 109.781471,41.0568059 L108.961431,41.1593109 C109.120884,43.3005365 109.997862,44.3711333 111.592392,44.3711333 C112.139088,44.3711333 112.719944,44.2344614 113.334977,43.9611134 C113.95001,43.6877655 114.428361,43.4144216 114.770046,43.1410737 L115.282571,42.7310538 L116.102611,43.8244401 C115.920379,44.0750091 115.55592,44.4052996 115.009225,44.8153215 C114.462529,45.2253434 113.950009,45.5670233 113.47165,45.8403712 C112.150468,46.5692991 110.704024,46.9337576 109.132273,46.9337576 C107.560522,46.9337576 106.319086,46.3756805 105.407926,45.2595097 C104.496766,44.1433389 104.041193,42.5943904 104.041193,40.6126177 L104.041193,40.6126177 Z M111.694897,38.0158251 C112.378267,37.2413392 112.719947,36.2390784 112.719947,35.0090126 C112.719947,33.7789469 112.355488,33.1639232 111.626561,33.1639232 C110.760959,33.1639232 110.094683,33.8985348 109.627714,35.36778 C109.160744,36.8370253 108.927263,38.2094392 108.927263,39.485063 C110.088992,39.2800521 111.011527,38.790311 111.694897,38.0158251 L111.694897,38.0158251 Z M118.494394,46.6262427 L118.255215,46.6262427 C118.209657,46.4440107 118.186879,46.0283002 118.186879,45.3790988 C118.186879,44.7298974 118.494391,42.9816357 119.109423,40.1342612 C119.724456,37.2868866 120.031968,35.6582128 120.031968,35.2481909 C120.031968,34.542042 119.713067,33.7675678 119.075255,32.9247449 L118.76774,32.514725 L118.801908,32.0705368 C120.031974,31.7288519 122.002328,31.558012 124.713028,31.558012 C124.986376,32.1502659 125.123048,32.9816868 125.123048,34.0522996 C125.373617,33.6422777 125.897526,33.0955899 126.694791,32.4122201 C127.492056,31.7288502 128.312088,31.3871704 129.154911,31.3871704 C130.384976,31.3871704 131,32.4577671 131,34.5989928 C130.886105,34.7356667 130.732349,34.9122013 130.538728,35.1286018 C130.345106,35.3450022 129.957869,35.6468194 129.377005,36.0340624 C128.79614,36.4213053 128.232369,36.6604812 127.685673,36.7515972 C127.662894,36.7515972 127.469275,36.4440853 127.104811,35.8290524 C126.740347,35.2140195 126.467003,34.9065077 126.284771,34.9065077 C125.715296,35.1115186 125.214166,35.4531985 124.781365,35.9315574 C123.733531,40.6468096 123.209622,43.6991493 123.209622,45.0886681 C123.209622,45.589806 123.221012,45.9428752 123.243791,46.1478861 C122.446526,46.4667921 120.863409,46.6262427 118.494394,46.6262427 L118.494394,46.6262427 Z" id="Clever-logo-(placeholder)" stroke="none" fill="#FFFFFF" fill-rule="evenodd"></path>
</svg>
